M48
; DRILL file {KiCad 8.0.0-8.0.0-1~ubuntu22.04.1} date 2024-02-29T22:19:28-0500
; FORMAT={-:-/ absolute / inch / decimal}
; #@! TF.CreationDate,2024-02-29T22:19:28-05:00
; #@! TF.GenerationSoftware,Kicad,Pcbnew,8.0.0-8.0.0-1~ubuntu22.04.1
; #@! TF.FileFunction,Plated,1,2,PTH
FMAT,2
INCH
; #@! TA.AperFunction,Plated,PTH,ViaDrill
T1C0.0118
; #@! TA.AperFunction,Plated,PTH,ComponentDrill
T2C0.0236
; #@! TA.AperFunction,Plated,PTH,ComponentDrill
T3C0.0394
%
G90
G05
T1
X2.628Y-3.2579
X2.628Y-3.3366
X2.628Y-3.4744
X2.7362Y-3.4055
X3.189Y-3.2185
X3.189Y-3.3169
X3.189Y-3.4154
T3
X2.874Y-3.0167
X2.874Y-3.1167
X2.874Y-3.2167
X2.874Y-3.3167
X2.874Y-3.4167
X2.874Y-3.5167
X2.874Y-3.6167
X2.874Y-3.7167
X3.3159Y-3.1659
X3.3159Y-3.2659
X3.3159Y-3.3659
X3.3159Y-3.4659
X3.3159Y-3.5659
X3.4159Y-3.1659
X3.4159Y-3.2659
X3.4159Y-3.3659
X3.4159Y-3.4659
X3.4159Y-3.5659
T2
G00X2.5089Y-3.1961
M15
G01X2.4852Y-3.1961
M16
G05
G00X2.5089Y-3.5362
M15
G01X2.4852Y-3.5362
M16
G05
G00X2.6833Y-3.1961
M15
G01X2.64Y-3.1961
M16
G05
G00X2.6833Y-3.5362
M15
G01X2.64Y-3.5362
M16
G05
M30
