%TF.GenerationSoftware,KiCad,Pcbnew,8.0.0-8.0.0-1~ubuntu22.04.1*%
%TF.CreationDate,2024-02-29T22:18:46-05:00*%
%TF.ProjectId,ezUSB,657a5553-422e-46b6-9963-61645f706362,rev?*%
%TF.SameCoordinates,Original*%
%TF.FileFunction,Legend,Bot*%
%TF.FilePolarity,Positive*%
%FSLAX46Y46*%
G04 Gerber Fmt 4.6, Leading zero omitted, Abs format (unit mm)*
G04 Created by KiCad (PCBNEW 8.0.0-8.0.0-1~ubuntu22.04.1) date 2024-02-29 22:18:46*
%MOMM*%
%LPD*%
G01*
G04 APERTURE LIST*
%ADD10C,0.100000*%
%ADD11C,0.200000*%
%ADD12C,0.250000*%
%ADD13C,0.187500*%
G04 APERTURE END LIST*
D10*
X87000000Y-79000000D02*
G75*
G02*
X88000000Y-80000000I0J-1000000D01*
G01*
X84000000Y-79000000D02*
X87000000Y-79000000D01*
X88000000Y-91000000D02*
G75*
G02*
X87000000Y-92000000I-1000000J0D01*
G01*
X88000000Y-80000000D02*
X88000000Y-91000000D01*
X84000000Y-92000000D02*
G75*
G02*
X83000000Y-91000000I0J1000000D01*
G01*
X83000000Y-91000000D02*
X83000000Y-80000000D01*
X87000000Y-92000000D02*
X84000000Y-92000000D01*
X83000000Y-80000000D02*
G75*
G02*
X84000000Y-79000000I1000000J0D01*
G01*
D11*
X82773183Y-79946219D02*
X82439850Y-80946219D01*
X82439850Y-80946219D02*
X82106517Y-79946219D01*
X81439850Y-80422409D02*
X81296993Y-80470028D01*
X81296993Y-80470028D02*
X81249374Y-80517647D01*
X81249374Y-80517647D02*
X81201755Y-80612885D01*
X81201755Y-80612885D02*
X81201755Y-80755742D01*
X81201755Y-80755742D02*
X81249374Y-80850980D01*
X81249374Y-80850980D02*
X81296993Y-80898600D01*
X81296993Y-80898600D02*
X81392231Y-80946219D01*
X81392231Y-80946219D02*
X81773183Y-80946219D01*
X81773183Y-80946219D02*
X81773183Y-79946219D01*
X81773183Y-79946219D02*
X81439850Y-79946219D01*
X81439850Y-79946219D02*
X81344612Y-79993838D01*
X81344612Y-79993838D02*
X81296993Y-80041457D01*
X81296993Y-80041457D02*
X81249374Y-80136695D01*
X81249374Y-80136695D02*
X81249374Y-80231933D01*
X81249374Y-80231933D02*
X81296993Y-80327171D01*
X81296993Y-80327171D02*
X81344612Y-80374790D01*
X81344612Y-80374790D02*
X81439850Y-80422409D01*
X81439850Y-80422409D02*
X81773183Y-80422409D01*
X80773183Y-79946219D02*
X80773183Y-80755742D01*
X80773183Y-80755742D02*
X80725564Y-80850980D01*
X80725564Y-80850980D02*
X80677945Y-80898600D01*
X80677945Y-80898600D02*
X80582707Y-80946219D01*
X80582707Y-80946219D02*
X80392231Y-80946219D01*
X80392231Y-80946219D02*
X80296993Y-80898600D01*
X80296993Y-80898600D02*
X80249374Y-80850980D01*
X80249374Y-80850980D02*
X80201755Y-80755742D01*
X80201755Y-80755742D02*
X80201755Y-79946219D01*
X79773183Y-80898600D02*
X79630326Y-80946219D01*
X79630326Y-80946219D02*
X79392231Y-80946219D01*
X79392231Y-80946219D02*
X79296993Y-80898600D01*
X79296993Y-80898600D02*
X79249374Y-80850980D01*
X79249374Y-80850980D02*
X79201755Y-80755742D01*
X79201755Y-80755742D02*
X79201755Y-80660504D01*
X79201755Y-80660504D02*
X79249374Y-80565266D01*
X79249374Y-80565266D02*
X79296993Y-80517647D01*
X79296993Y-80517647D02*
X79392231Y-80470028D01*
X79392231Y-80470028D02*
X79582707Y-80422409D01*
X79582707Y-80422409D02*
X79677945Y-80374790D01*
X79677945Y-80374790D02*
X79725564Y-80327171D01*
X79725564Y-80327171D02*
X79773183Y-80231933D01*
X79773183Y-80231933D02*
X79773183Y-80136695D01*
X79773183Y-80136695D02*
X79725564Y-80041457D01*
X79725564Y-80041457D02*
X79677945Y-79993838D01*
X79677945Y-79993838D02*
X79582707Y-79946219D01*
X79582707Y-79946219D02*
X79344612Y-79946219D01*
X79344612Y-79946219D02*
X79201755Y-79993838D01*
D12*
X82597431Y-91165869D02*
X82597431Y-90165869D01*
X82597431Y-90165869D02*
X82026003Y-91165869D01*
X82026003Y-91165869D02*
X82026003Y-90165869D01*
X80978384Y-91070630D02*
X81026003Y-91118250D01*
X81026003Y-91118250D02*
X81168860Y-91165869D01*
X81168860Y-91165869D02*
X81264098Y-91165869D01*
X81264098Y-91165869D02*
X81406955Y-91118250D01*
X81406955Y-91118250D02*
X81502193Y-91023011D01*
X81502193Y-91023011D02*
X81549812Y-90927773D01*
X81549812Y-90927773D02*
X81597431Y-90737297D01*
X81597431Y-90737297D02*
X81597431Y-90594440D01*
X81597431Y-90594440D02*
X81549812Y-90403964D01*
X81549812Y-90403964D02*
X81502193Y-90308726D01*
X81502193Y-90308726D02*
X81406955Y-90213488D01*
X81406955Y-90213488D02*
X81264098Y-90165869D01*
X81264098Y-90165869D02*
X81168860Y-90165869D01*
X81168860Y-90165869D02*
X81026003Y-90213488D01*
X81026003Y-90213488D02*
X80978384Y-90261107D01*
X82073622Y-87673488D02*
X82168860Y-87625869D01*
X82168860Y-87625869D02*
X82311717Y-87625869D01*
X82311717Y-87625869D02*
X82454574Y-87673488D01*
X82454574Y-87673488D02*
X82549812Y-87768726D01*
X82549812Y-87768726D02*
X82597431Y-87863964D01*
X82597431Y-87863964D02*
X82645050Y-88054440D01*
X82645050Y-88054440D02*
X82645050Y-88197297D01*
X82645050Y-88197297D02*
X82597431Y-88387773D01*
X82597431Y-88387773D02*
X82549812Y-88483011D01*
X82549812Y-88483011D02*
X82454574Y-88578250D01*
X82454574Y-88578250D02*
X82311717Y-88625869D01*
X82311717Y-88625869D02*
X82216479Y-88625869D01*
X82216479Y-88625869D02*
X82073622Y-88578250D01*
X82073622Y-88578250D02*
X82026003Y-88530630D01*
X82026003Y-88530630D02*
X82026003Y-88197297D01*
X82026003Y-88197297D02*
X82216479Y-88197297D01*
X81597431Y-88625869D02*
X81597431Y-87625869D01*
X81597431Y-87625869D02*
X81026003Y-88625869D01*
X81026003Y-88625869D02*
X81026003Y-87625869D01*
X80549812Y-88625869D02*
X80549812Y-87625869D01*
X80549812Y-87625869D02*
X80311717Y-87625869D01*
X80311717Y-87625869D02*
X80168860Y-87673488D01*
X80168860Y-87673488D02*
X80073622Y-87768726D01*
X80073622Y-87768726D02*
X80026003Y-87863964D01*
X80026003Y-87863964D02*
X79978384Y-88054440D01*
X79978384Y-88054440D02*
X79978384Y-88197297D01*
X79978384Y-88197297D02*
X80026003Y-88387773D01*
X80026003Y-88387773D02*
X80073622Y-88483011D01*
X80073622Y-88483011D02*
X80168860Y-88578250D01*
X80168860Y-88578250D02*
X80311717Y-88625869D01*
X80311717Y-88625869D02*
X80549812Y-88625869D01*
D10*
X84840163Y-93964328D02*
X84935401Y-94011947D01*
X84935401Y-94011947D02*
X85125877Y-94011947D01*
X85125877Y-94011947D02*
X85221115Y-93964328D01*
X85221115Y-93964328D02*
X85268734Y-93869089D01*
X85268734Y-93869089D02*
X85268734Y-93488137D01*
X85268734Y-93488137D02*
X85221115Y-93392899D01*
X85221115Y-93392899D02*
X85125877Y-93345280D01*
X85125877Y-93345280D02*
X84935401Y-93345280D01*
X84935401Y-93345280D02*
X84840163Y-93392899D01*
X84840163Y-93392899D02*
X84792544Y-93488137D01*
X84792544Y-93488137D02*
X84792544Y-93583375D01*
X84792544Y-93583375D02*
X85268734Y-93678613D01*
X84459210Y-93345280D02*
X83935401Y-93345280D01*
X83935401Y-93345280D02*
X84459210Y-94011947D01*
X84459210Y-94011947D02*
X83935401Y-94011947D01*
X83554448Y-93011947D02*
X83554448Y-93821470D01*
X83554448Y-93821470D02*
X83506829Y-93916708D01*
X83506829Y-93916708D02*
X83459210Y-93964328D01*
X83459210Y-93964328D02*
X83363972Y-94011947D01*
X83363972Y-94011947D02*
X83173496Y-94011947D01*
X83173496Y-94011947D02*
X83078258Y-93964328D01*
X83078258Y-93964328D02*
X83030639Y-93916708D01*
X83030639Y-93916708D02*
X82983020Y-93821470D01*
X82983020Y-93821470D02*
X82983020Y-93011947D01*
X82554448Y-93964328D02*
X82411591Y-94011947D01*
X82411591Y-94011947D02*
X82173496Y-94011947D01*
X82173496Y-94011947D02*
X82078258Y-93964328D01*
X82078258Y-93964328D02*
X82030639Y-93916708D01*
X82030639Y-93916708D02*
X81983020Y-93821470D01*
X81983020Y-93821470D02*
X81983020Y-93726232D01*
X81983020Y-93726232D02*
X82030639Y-93630994D01*
X82030639Y-93630994D02*
X82078258Y-93583375D01*
X82078258Y-93583375D02*
X82173496Y-93535756D01*
X82173496Y-93535756D02*
X82363972Y-93488137D01*
X82363972Y-93488137D02*
X82459210Y-93440518D01*
X82459210Y-93440518D02*
X82506829Y-93392899D01*
X82506829Y-93392899D02*
X82554448Y-93297661D01*
X82554448Y-93297661D02*
X82554448Y-93202423D01*
X82554448Y-93202423D02*
X82506829Y-93107185D01*
X82506829Y-93107185D02*
X82459210Y-93059566D01*
X82459210Y-93059566D02*
X82363972Y-93011947D01*
X82363972Y-93011947D02*
X82125877Y-93011947D01*
X82125877Y-93011947D02*
X81983020Y-93059566D01*
X81221115Y-93488137D02*
X81078258Y-93535756D01*
X81078258Y-93535756D02*
X81030639Y-93583375D01*
X81030639Y-93583375D02*
X80983020Y-93678613D01*
X80983020Y-93678613D02*
X80983020Y-93821470D01*
X80983020Y-93821470D02*
X81030639Y-93916708D01*
X81030639Y-93916708D02*
X81078258Y-93964328D01*
X81078258Y-93964328D02*
X81173496Y-94011947D01*
X81173496Y-94011947D02*
X81554448Y-94011947D01*
X81554448Y-94011947D02*
X81554448Y-93011947D01*
X81554448Y-93011947D02*
X81221115Y-93011947D01*
X81221115Y-93011947D02*
X81125877Y-93059566D01*
X81125877Y-93059566D02*
X81078258Y-93107185D01*
X81078258Y-93107185D02*
X81030639Y-93202423D01*
X81030639Y-93202423D02*
X81030639Y-93297661D01*
X81030639Y-93297661D02*
X81078258Y-93392899D01*
X81078258Y-93392899D02*
X81125877Y-93440518D01*
X81125877Y-93440518D02*
X81221115Y-93488137D01*
X81221115Y-93488137D02*
X81554448Y-93488137D01*
X79792543Y-94011947D02*
X79792543Y-93011947D01*
X79792543Y-93392899D02*
X79697305Y-93345280D01*
X79697305Y-93345280D02*
X79506829Y-93345280D01*
X79506829Y-93345280D02*
X79411591Y-93392899D01*
X79411591Y-93392899D02*
X79363972Y-93440518D01*
X79363972Y-93440518D02*
X79316353Y-93535756D01*
X79316353Y-93535756D02*
X79316353Y-93821470D01*
X79316353Y-93821470D02*
X79363972Y-93916708D01*
X79363972Y-93916708D02*
X79411591Y-93964328D01*
X79411591Y-93964328D02*
X79506829Y-94011947D01*
X79506829Y-94011947D02*
X79697305Y-94011947D01*
X79697305Y-94011947D02*
X79792543Y-93964328D01*
X78983019Y-93345280D02*
X78744924Y-94011947D01*
X78506829Y-93345280D02*
X78744924Y-94011947D01*
X78744924Y-94011947D02*
X78840162Y-94250042D01*
X78840162Y-94250042D02*
X78887781Y-94297661D01*
X78887781Y-94297661D02*
X78983019Y-94345280D01*
X84602068Y-95145700D02*
X84649687Y-95098081D01*
X84649687Y-95098081D02*
X84744925Y-95050462D01*
X84744925Y-95050462D02*
X84840163Y-95050462D01*
X84840163Y-95050462D02*
X84935401Y-95098081D01*
X84935401Y-95098081D02*
X84983020Y-95145700D01*
X84983020Y-95145700D02*
X85030639Y-95240938D01*
X85030639Y-95240938D02*
X85030639Y-95336176D01*
X85030639Y-95336176D02*
X84983020Y-95431414D01*
X84983020Y-95431414D02*
X84935401Y-95479033D01*
X84935401Y-95479033D02*
X84840163Y-95526652D01*
X84840163Y-95526652D02*
X84744925Y-95526652D01*
X84744925Y-95526652D02*
X84649687Y-95479033D01*
X84649687Y-95479033D02*
X84602068Y-95431414D01*
X84602068Y-95050462D02*
X84602068Y-95431414D01*
X84602068Y-95431414D02*
X84554449Y-95479033D01*
X84554449Y-95479033D02*
X84506830Y-95479033D01*
X84506830Y-95479033D02*
X84411591Y-95431414D01*
X84411591Y-95431414D02*
X84363972Y-95336176D01*
X84363972Y-95336176D02*
X84363972Y-95098081D01*
X84363972Y-95098081D02*
X84459211Y-94955224D01*
X84459211Y-94955224D02*
X84602068Y-94859986D01*
X84602068Y-94859986D02*
X84792544Y-94812367D01*
X84792544Y-94812367D02*
X84983020Y-94859986D01*
X84983020Y-94859986D02*
X85125877Y-94955224D01*
X85125877Y-94955224D02*
X85221115Y-95098081D01*
X85221115Y-95098081D02*
X85268734Y-95288557D01*
X85268734Y-95288557D02*
X85221115Y-95479033D01*
X85221115Y-95479033D02*
X85125877Y-95621891D01*
X85125877Y-95621891D02*
X84983020Y-95717129D01*
X84983020Y-95717129D02*
X84792544Y-95764748D01*
X84792544Y-95764748D02*
X84602068Y-95717129D01*
X84602068Y-95717129D02*
X84459211Y-95621891D01*
X83602068Y-95098081D02*
X83459211Y-95145700D01*
X83459211Y-95145700D02*
X83411592Y-95193319D01*
X83411592Y-95193319D02*
X83363973Y-95288557D01*
X83363973Y-95288557D02*
X83363973Y-95431414D01*
X83363973Y-95431414D02*
X83411592Y-95526652D01*
X83411592Y-95526652D02*
X83459211Y-95574272D01*
X83459211Y-95574272D02*
X83554449Y-95621891D01*
X83554449Y-95621891D02*
X83935401Y-95621891D01*
X83935401Y-95621891D02*
X83935401Y-94621891D01*
X83935401Y-94621891D02*
X83602068Y-94621891D01*
X83602068Y-94621891D02*
X83506830Y-94669510D01*
X83506830Y-94669510D02*
X83459211Y-94717129D01*
X83459211Y-94717129D02*
X83411592Y-94812367D01*
X83411592Y-94812367D02*
X83411592Y-94907605D01*
X83411592Y-94907605D02*
X83459211Y-95002843D01*
X83459211Y-95002843D02*
X83506830Y-95050462D01*
X83506830Y-95050462D02*
X83602068Y-95098081D01*
X83602068Y-95098081D02*
X83935401Y-95098081D01*
X82506830Y-94955224D02*
X82506830Y-95621891D01*
X82935401Y-94955224D02*
X82935401Y-95479033D01*
X82935401Y-95479033D02*
X82887782Y-95574272D01*
X82887782Y-95574272D02*
X82792544Y-95621891D01*
X82792544Y-95621891D02*
X82649687Y-95621891D01*
X82649687Y-95621891D02*
X82554449Y-95574272D01*
X82554449Y-95574272D02*
X82506830Y-95526652D01*
X82078258Y-95574272D02*
X81983020Y-95621891D01*
X81983020Y-95621891D02*
X81792544Y-95621891D01*
X81792544Y-95621891D02*
X81697306Y-95574272D01*
X81697306Y-95574272D02*
X81649687Y-95479033D01*
X81649687Y-95479033D02*
X81649687Y-95431414D01*
X81649687Y-95431414D02*
X81697306Y-95336176D01*
X81697306Y-95336176D02*
X81792544Y-95288557D01*
X81792544Y-95288557D02*
X81935401Y-95288557D01*
X81935401Y-95288557D02*
X82030639Y-95240938D01*
X82030639Y-95240938D02*
X82078258Y-95145700D01*
X82078258Y-95145700D02*
X82078258Y-95098081D01*
X82078258Y-95098081D02*
X82030639Y-95002843D01*
X82030639Y-95002843D02*
X81935401Y-94955224D01*
X81935401Y-94955224D02*
X81792544Y-94955224D01*
X81792544Y-94955224D02*
X81697306Y-95002843D01*
X80840163Y-95574272D02*
X80935401Y-95621891D01*
X80935401Y-95621891D02*
X81125877Y-95621891D01*
X81125877Y-95621891D02*
X81221115Y-95574272D01*
X81221115Y-95574272D02*
X81268734Y-95479033D01*
X81268734Y-95479033D02*
X81268734Y-95098081D01*
X81268734Y-95098081D02*
X81221115Y-95002843D01*
X81221115Y-95002843D02*
X81125877Y-94955224D01*
X81125877Y-94955224D02*
X80935401Y-94955224D01*
X80935401Y-94955224D02*
X80840163Y-95002843D01*
X80840163Y-95002843D02*
X80792544Y-95098081D01*
X80792544Y-95098081D02*
X80792544Y-95193319D01*
X80792544Y-95193319D02*
X81268734Y-95288557D01*
X80411591Y-95574272D02*
X80316353Y-95621891D01*
X80316353Y-95621891D02*
X80125877Y-95621891D01*
X80125877Y-95621891D02*
X80030639Y-95574272D01*
X80030639Y-95574272D02*
X79983020Y-95479033D01*
X79983020Y-95479033D02*
X79983020Y-95431414D01*
X79983020Y-95431414D02*
X80030639Y-95336176D01*
X80030639Y-95336176D02*
X80125877Y-95288557D01*
X80125877Y-95288557D02*
X80268734Y-95288557D01*
X80268734Y-95288557D02*
X80363972Y-95240938D01*
X80363972Y-95240938D02*
X80411591Y-95145700D01*
X80411591Y-95145700D02*
X80411591Y-95098081D01*
X80411591Y-95098081D02*
X80363972Y-95002843D01*
X80363972Y-95002843D02*
X80268734Y-94955224D01*
X80268734Y-94955224D02*
X80125877Y-94955224D01*
X80125877Y-94955224D02*
X80030639Y-95002843D01*
X78983020Y-95526652D02*
X79030639Y-95574272D01*
X79030639Y-95574272D02*
X79173496Y-95621891D01*
X79173496Y-95621891D02*
X79268734Y-95621891D01*
X79268734Y-95621891D02*
X79411591Y-95574272D01*
X79411591Y-95574272D02*
X79506829Y-95479033D01*
X79506829Y-95479033D02*
X79554448Y-95383795D01*
X79554448Y-95383795D02*
X79602067Y-95193319D01*
X79602067Y-95193319D02*
X79602067Y-95050462D01*
X79602067Y-95050462D02*
X79554448Y-94859986D01*
X79554448Y-94859986D02*
X79506829Y-94764748D01*
X79506829Y-94764748D02*
X79411591Y-94669510D01*
X79411591Y-94669510D02*
X79268734Y-94621891D01*
X79268734Y-94621891D02*
X79173496Y-94621891D01*
X79173496Y-94621891D02*
X79030639Y-94669510D01*
X79030639Y-94669510D02*
X78983020Y-94717129D01*
X78125877Y-95621891D02*
X78125877Y-95098081D01*
X78125877Y-95098081D02*
X78173496Y-95002843D01*
X78173496Y-95002843D02*
X78268734Y-94955224D01*
X78268734Y-94955224D02*
X78459210Y-94955224D01*
X78459210Y-94955224D02*
X78554448Y-95002843D01*
X78125877Y-95574272D02*
X78221115Y-95621891D01*
X78221115Y-95621891D02*
X78459210Y-95621891D01*
X78459210Y-95621891D02*
X78554448Y-95574272D01*
X78554448Y-95574272D02*
X78602067Y-95479033D01*
X78602067Y-95479033D02*
X78602067Y-95383795D01*
X78602067Y-95383795D02*
X78554448Y-95288557D01*
X78554448Y-95288557D02*
X78459210Y-95240938D01*
X78459210Y-95240938D02*
X78221115Y-95240938D01*
X78221115Y-95240938D02*
X78125877Y-95193319D01*
X77649686Y-94955224D02*
X77649686Y-95621891D01*
X77649686Y-95050462D02*
X77602067Y-95002843D01*
X77602067Y-95002843D02*
X77506829Y-94955224D01*
X77506829Y-94955224D02*
X77363972Y-94955224D01*
X77363972Y-94955224D02*
X77268734Y-95002843D01*
X77268734Y-95002843D02*
X77221115Y-95098081D01*
X77221115Y-95098081D02*
X77221115Y-95621891D01*
X76411591Y-95098081D02*
X76744924Y-95098081D01*
X76744924Y-95621891D02*
X76744924Y-94621891D01*
X76744924Y-94621891D02*
X76268734Y-94621891D01*
X75744924Y-95621891D02*
X75840162Y-95574272D01*
X75840162Y-95574272D02*
X75887781Y-95479033D01*
X75887781Y-95479033D02*
X75887781Y-94621891D01*
X75459209Y-94955224D02*
X75221114Y-95621891D01*
X74983019Y-94955224D02*
X75221114Y-95621891D01*
X75221114Y-95621891D02*
X75316352Y-95859986D01*
X75316352Y-95859986D02*
X75363971Y-95907605D01*
X75363971Y-95907605D02*
X75459209Y-95955224D01*
D13*
X87472180Y-78235250D02*
X87615037Y-78306678D01*
X87615037Y-78306678D02*
X87900752Y-78306678D01*
X87900752Y-78306678D02*
X88043609Y-78235250D01*
X88043609Y-78235250D02*
X88115037Y-78092392D01*
X88115037Y-78092392D02*
X88115037Y-77520964D01*
X88115037Y-77520964D02*
X88043609Y-77378107D01*
X88043609Y-77378107D02*
X87900752Y-77306678D01*
X87900752Y-77306678D02*
X87615037Y-77306678D01*
X87615037Y-77306678D02*
X87472180Y-77378107D01*
X87472180Y-77378107D02*
X87400752Y-77520964D01*
X87400752Y-77520964D02*
X87400752Y-77663821D01*
X87400752Y-77663821D02*
X88115037Y-77806678D01*
X86757895Y-76806678D02*
X86757895Y-78020964D01*
X86757895Y-78020964D02*
X86686466Y-78163821D01*
X86686466Y-78163821D02*
X86615038Y-78235250D01*
X86615038Y-78235250D02*
X86472180Y-78306678D01*
X86472180Y-78306678D02*
X86186466Y-78306678D01*
X86186466Y-78306678D02*
X86043609Y-78235250D01*
X86043609Y-78235250D02*
X85972180Y-78163821D01*
X85972180Y-78163821D02*
X85900752Y-78020964D01*
X85900752Y-78020964D02*
X85900752Y-76806678D01*
X85257894Y-78235250D02*
X85043609Y-78306678D01*
X85043609Y-78306678D02*
X84686466Y-78306678D01*
X84686466Y-78306678D02*
X84543609Y-78235250D01*
X84543609Y-78235250D02*
X84472180Y-78163821D01*
X84472180Y-78163821D02*
X84400751Y-78020964D01*
X84400751Y-78020964D02*
X84400751Y-77878107D01*
X84400751Y-77878107D02*
X84472180Y-77735250D01*
X84472180Y-77735250D02*
X84543609Y-77663821D01*
X84543609Y-77663821D02*
X84686466Y-77592392D01*
X84686466Y-77592392D02*
X84972180Y-77520964D01*
X84972180Y-77520964D02*
X85115037Y-77449535D01*
X85115037Y-77449535D02*
X85186466Y-77378107D01*
X85186466Y-77378107D02*
X85257894Y-77235250D01*
X85257894Y-77235250D02*
X85257894Y-77092392D01*
X85257894Y-77092392D02*
X85186466Y-76949535D01*
X85186466Y-76949535D02*
X85115037Y-76878107D01*
X85115037Y-76878107D02*
X84972180Y-76806678D01*
X84972180Y-76806678D02*
X84615037Y-76806678D01*
X84615037Y-76806678D02*
X84400751Y-76878107D01*
X83257895Y-77520964D02*
X83043609Y-77592392D01*
X83043609Y-77592392D02*
X82972180Y-77663821D01*
X82972180Y-77663821D02*
X82900752Y-77806678D01*
X82900752Y-77806678D02*
X82900752Y-78020964D01*
X82900752Y-78020964D02*
X82972180Y-78163821D01*
X82972180Y-78163821D02*
X83043609Y-78235250D01*
X83043609Y-78235250D02*
X83186466Y-78306678D01*
X83186466Y-78306678D02*
X83757895Y-78306678D01*
X83757895Y-78306678D02*
X83757895Y-76806678D01*
X83757895Y-76806678D02*
X83257895Y-76806678D01*
X83257895Y-76806678D02*
X83115038Y-76878107D01*
X83115038Y-76878107D02*
X83043609Y-76949535D01*
X83043609Y-76949535D02*
X82972180Y-77092392D01*
X82972180Y-77092392D02*
X82972180Y-77235250D01*
X82972180Y-77235250D02*
X83043609Y-77378107D01*
X83043609Y-77378107D02*
X83115038Y-77449535D01*
X83115038Y-77449535D02*
X83257895Y-77520964D01*
X83257895Y-77520964D02*
X83757895Y-77520964D01*
D11*
X82630326Y-83486219D02*
X82630326Y-82486219D01*
X82630326Y-82486219D02*
X82392231Y-82486219D01*
X82392231Y-82486219D02*
X82249374Y-82533838D01*
X82249374Y-82533838D02*
X82154136Y-82629076D01*
X82154136Y-82629076D02*
X82106517Y-82724314D01*
X82106517Y-82724314D02*
X82058898Y-82914790D01*
X82058898Y-82914790D02*
X82058898Y-83057647D01*
X82058898Y-83057647D02*
X82106517Y-83248123D01*
X82106517Y-83248123D02*
X82154136Y-83343361D01*
X82154136Y-83343361D02*
X82249374Y-83438600D01*
X82249374Y-83438600D02*
X82392231Y-83486219D01*
X82392231Y-83486219D02*
X82630326Y-83486219D01*
X81630326Y-83105266D02*
X80868422Y-83105266D01*
X82630326Y-86026219D02*
X82630326Y-85026219D01*
X82630326Y-85026219D02*
X82392231Y-85026219D01*
X82392231Y-85026219D02*
X82249374Y-85073838D01*
X82249374Y-85073838D02*
X82154136Y-85169076D01*
X82154136Y-85169076D02*
X82106517Y-85264314D01*
X82106517Y-85264314D02*
X82058898Y-85454790D01*
X82058898Y-85454790D02*
X82058898Y-85597647D01*
X82058898Y-85597647D02*
X82106517Y-85788123D01*
X82106517Y-85788123D02*
X82154136Y-85883361D01*
X82154136Y-85883361D02*
X82249374Y-85978600D01*
X82249374Y-85978600D02*
X82392231Y-86026219D01*
X82392231Y-86026219D02*
X82630326Y-86026219D01*
X81630326Y-85645266D02*
X80868422Y-85645266D01*
X81249374Y-86026219D02*
X81249374Y-85264314D01*
M02*
